<?xml version="1.0" encoding="UTF-8"?>
<svg xmlns="http://www.w3.org/2000/svg" version="1.1" viewBox="0 0 16 16">
  <defs>
    <style>
      .cls-1 {
        fill: #34f2af;
      }
    </style>
  </defs>
  <!-- Generator: Adobe Illustrator 28.7.2, SVG Export Plug-In . SVG Version: 1.2.0 Build 154)  -->
  <g>
    <g id="Camada_1">
      <g id="Camada_1-2" data-name="Camada_1">
        <path class="cls-1" d="M5.8,1.1c.2.1.3.4.2.7l-2.5,4.2h9.2l-2.5-4.2c-.1-.2,0-.5.2-.7.2-.1.5,0,.7.2l2.9,4.8h1.7c.3,0,.5.2.5.5v1c0,.3-.2.5-.5.5H.5c-.3,0-.5-.2-.5-.5v-1c0-.3.2-.5.5-.5h1.7L5.1,1.2c0-.2.4-.3.7-.2h0ZM3.4,15l-1.5-6H.9l1.5,6.4c0,.3.4.6.7.6h9.6c.3,0,.6-.2.7-.6l1.5-6.4h-1l-1.5,6H3.4Z"/>
        <g>
          <path class="cls-1" d="M7.2,11.4c.2,0,.3.2.4.4s.2.4.2.6c0,.3,0,.6-.4.8s-.6.3-1,.3-.7-.1-1-.3-.4-.5-.4-.9h.7c0,.2,0,.3.2.4,0,.1.3.2.5.2s.3,0,.5-.2c0-.1.2-.2.2-.4s0-.3-.2-.4c0-.1-.3-.2-.5-.2h-.5v-.6h.5c.2,0,.3,0,.4-.1,0,0,.2-.2.2-.4s0-.3-.2-.4c0,0-.3-.1-.4-.1s-.3,0-.4.1c0,0-.2.2-.2.4h-.7c0-.3,0-.6.4-.8s.6-.3.9-.3.7.1.9.3c.2.2.4.5.4.8s0,.4,0,.5c0,.2-.2.3-.4.4h0Z"/>
          <path class="cls-1" d="M10.6,12.9c-.3.4-.7.6-1.1.6s-.8-.2-1.1-.6c-.3-.4-.4-.9-.4-1.5s0-1.1.4-1.5.7-.6,1.1-.6.8.2,1.1.6c.3.4.4.9.4,1.5s-.1,1.1-.4,1.5ZM8.9,12.4c.2.3.4.4.6.4s.4-.1.6-.4.2-.6.2-1,0-.7-.2-1-.4-.4-.6-.4-.5.1-.6.4-.2.6-.2,1,0,.7.2,1Z"/>
        </g>
      </g>
    </g>
  </g>
</svg>