<?xml version="1.0" encoding="UTF-8"?>
<svg xmlns="http://www.w3.org/2000/svg" version="1.1" viewBox="0 0 16 16">
  <defs>
    <style>
      .cls-1 {
        fill: #34f2af;
      }
    </style>
  </defs>
  <!-- Generator: Adobe Illustrator 28.7.2, SVG Export Plug-In . SVG Version: 1.2.0 Build 154)  -->
  <g>
    <g id="Camada_1">
      <g id="Camada_1-2" data-name="Camada_1">
        <path class="cls-1" d="M3.5,0c.3,0,.5.2.5.5v.5h8v-.5c0-.3.2-.5.5-.5s.5.2.5.5v.5h1c1.1,0,2,.9,2,2v11c0,1.1-.9,2-2,2H2c-1.1,0-2-.9-2-2V3C0,1.9.9,1,2,1h1v-.5c0-.3.2-.5.5-.5ZM1,4v10c0,.6.4,1,1,1h12c.6,0,1-.4,1-1V4H1Z"/>
        <g>
          <path class="cls-1" d="M7.6,11.7c-.4.6-1,.9-1.7.9s-1.3-.3-1.7-.9c-.4-.6-.7-1.3-.7-2.2s.2-1.7.7-2.2c.4-.6,1-.9,1.7-.9s1.3.3,1.7.9c.4.6.7,1.3.7,2.2s-.2,1.7-.7,2.2ZM5,10.9c.2.4.5.6.9.6s.7-.2.9-.6.4-.9.4-1.5,0-1.1-.4-1.5-.5-.6-.9-.6-.7.2-.9.6c-.2.4-.4.9-.4,1.5s0,1.1.4,1.5Z"/>
          <path class="cls-1" d="M8.4,6.4h4v.8c-1.2,1.7-2,3.5-2.4,5.2h-1.2c.3-1.6,1-3.2,2.1-4.9s0-.2,0-.2h-2.5v-1h0Z"/>
        </g>
      </g>
    </g>
  </g>
</svg>