<?xml version="1.0" encoding="UTF-8"?>
<svg id="Camada_2" xmlns="http://www.w3.org/2000/svg" viewBox="0 0 287.93 184.48">
  <defs>
    <style>
      .cls-1 {
        fill: #6becbc;
      }
    </style>
  </defs>
  <g id="Camada_1-2" data-name="Camada_1">
    <path class="cls-1" d="M125.18,69.96c-2.31-1.65-5.21-3.38-8.71-5.21-27.59-14.4-42.18-21.94-43.77-22.6-.28-.12-.49-.2-.62-.25-.2-.07-.42-.1-.66-.08-6.4.52-12.71.52-18.94.02-6.44-.53-12.05-1.02-16.83-1.49-.75-.07-.84.14-.28.64,6.7,6.04,11.72,12.57,17.76,20.45,2.56,3.35,4.79,5.86,6.67,7.54,6.68,5.95,14.72,8.89,24.1,8.83,4.11-.02,9.61-.76,16.52-2.22,5.45-1.15,12.75-2.8,21.9-4.93.46-.1,1.39-.27,2.8-.49.19-.03.21-.1.05-.21M43.1,60.68c-5.26-6.33-10.38-11.8-15.34-16.41-.86-.8-2.32-1.91-4.39-3.33-1.02-.7-1.73-.94-2.85-.69-1.35.3-2.49.92-3.42,1.86-.84.85-1.32,1.96-1.44,3.34-.49,5.36,3.57,10.43,7.99,12.83,3.21,1.74,6.4,2.71,9.55,2.9,2.74.16,5.68.13,8.82-.11.55-.04.9-.12,1.06-.24.05-.04.06-.11.02-.15,0,0,0,0,0,0h0ZM190.11,57.62c-3.3-13.36-10.85-25.44-21.58-34.21-.35-.29-.44-.22-.28.2.75,1.94,1.35,4.1,1.8,6.48,3.24,16.96-1.66,33.89-7.75,49.89-.02.06-.04.13-.04.2,0,.2.11.38.29.48l25.83,13.73s.01,0,.02,0c.1.04.22,0,.25-.1,0,0,0-.01,0-.02,4.01-12.11,4.49-24.33,1.44-36.65ZM154.93,76.39s0,0,.01,0c.08.03.16,0,.2-.07,0,0,0,0,0,0,2.92-7.39,5.12-14.5,6.59-21.33,2.76-12.77,1.67-24.76-3.26-35.94-.16-.36-.56-1.12-1.21-2.27-.14-.24-.34-.37-.63-.38-.47-.02-1.15.08-2.04.29-10.93,2.61-19.83,8.82-27.28,17.56-5.28,6.19-9.7,12.93-13.26,20.22-.01.03-.02.06-.02.09,0,.07.04.14.11.18l40.79,21.67ZM77.12,35.5l29.57,15.34s0,0,0,0c.13.07.3.02.37-.12,0,0,0,0,0,0,8.02-16.22,20.07-31.97,37.34-39.08.45-.18.44-.34-.02-.48-11-3.26-21.9-3.4-32.71-.39-9.43,2.62-17.65,7.12-24.64,13.49-3.64,3.31-6.95,7.02-9.95,11.11,0,0,0,0,0,0-.03.04-.02.1.02.12,0,0,0,0,0,0h0ZM168.96,13.96c.25.25,1.37,1.13,3.36,2.65,9.23,7.02,16.24,16.03,21.02,26.69,4.81,10.73,7.04,21.71,6.69,32.93-.27,8.78-2.55,17.58-5.64,25.81-.7,1.87-1.91,2.77-3.63,2.69-.81-.04-1.82-.51-3.05-1.42-1.37-1.02-2.33-1.67-2.86-1.96-1.26-.68-16.67-8.92-46.24-24.73-.65-.35-1.24-.68-1.76-.99-.18-.11-.4-.15-.62-.1-10.06,2.34-19.33,4.46-27.79,6.37-12.05,2.72-24.4,5.55-36.42,2.28-6.63-1.8-12.53-5.04-17.7-9.72-1.79-1.62-3.94-4.22-5.54-5.8-.14-.14-.3-.19-.49-.17-1.22.1-2.78.27-4.68.49-9.84,1.18-19.45.11-27.42-6.12-7.22-5.63-11.64-16.39-6.34-24.75,1.46-2.3,3.46-3.97,6.02-5.01,1.38-.56,3.87-.84,7.45-.83,8.58.03,14.44.22,17.57.58,5.46.63,10.92,1.07,16.38,1.33,3.44.16,7.04.07,10.8-.27.18-.01.35-.11.46-.26,9.85-14.53,23.73-25.72,40.54-30.32,13.41-3.68,26.67-3.41,39.78.81.19.06.39.01.52-.13.41-.41.83-1.11,1.36-1.51,3.69-2.85,7.72-3.26,12.1-1.23,4.29,2,7.99,7.35,6.01,12.23-.07.17-.04.33.1.46Z"/>
    <path class="cls-1" d="M43.1,60.68s0,0,0,0c.04.04.03.11-.02.15-.15.12-.51.2-1.06.24-3.14.24-6.08.27-8.82.11-3.16-.19-6.34-1.16-9.55-2.9-4.43-2.4-8.48-7.47-7.99-12.83.12-1.38.61-2.49,1.44-3.34.93-.94,2.07-1.56,3.42-1.86,1.13-.25,1.84,0,2.85.69,2.07,1.42,3.53,2.53,4.39,3.33,4.96,4.61,10.07,10.08,15.34,16.41"/>
    <path class="cls-1" d="M24.44,121.94h7.26c.66,0,.92.32.78.97l-2.4,10.55c-.12.53-.59.9-1.13.9h-6.8c-.6,0-.97.29-1.1.88l-6.42,29.01c-.24,1.05-.86,1.8-1.47,1.79l-12.49-.04s-.05,0-.07,0c-.38-.05-.65-.43-.6-.84,0-.03,0-.05.01-.08l6.61-30.42s0-.01,0-.02c.02-.12-.07-.24-.19-.25,0,0-.02,0-.02,0H1.74s-.08,0-.11,0c-.47-.06-.81-.49-.75-.97,0-.03,0-.06.02-.09l2.28-10.5c.1-.45.5-.77.96-.77h4.85c.2,0,.32-.1.37-.29.76-3.36,1.41-6.19,1.93-8.51,1.01-4.47,3.44-7.47,7.27-9.02,1.46-.59,3.63-.9,6.51-.91,5.59-.03,9.52-.04,11.79-.03.45,0,.82.37.82.82,0,.06,0,.12-.02.17l-2.3,10.58c-.12.53-.59.9-1.11.89h-8.04c-.51,0-.94.35-1.04.84l-1.07,4.92c-.06.29.05.43.34.43"/>
    <path class="cls-1" d="M141.14,121.91s0,.04,0,.06c0,.15.12.28.28.28h6.93s.06,0,.1,0c.53.06.91.53.86,1.05,0,.04,0,.07-.02.11l-2.16,9.52c-.22.97-.83,1.46-1.83,1.46h-6.96c-.18,0-.33.12-.37.29l-3.84,16.91c-.34,1.49.26,2.23,1.78,2.23h8.02s.06,0,.09,0c.39.05.66.4.62.79,0,.03,0,.05-.01.08l-2.32,10.23c-.17.76-.65,1.14-1.43,1.15-5.28.03-9.21.01-11.81-.04-2.27-.04-4.31-.55-6.11-1.53-3.48-1.9-4.18-5.69-3.56-9.31.77-4.51,2.27-11.29,4.51-20.33,0-.02,0-.03,0-.05,0-.13-.1-.23-.23-.23h-4.63c-1.1,0-1.53-.54-1.29-1.61l2.29-10.08c.1-.44.49-.75.94-.75h5.49c.19,0,.31-.09.35-.28l2.38-10.97c.12-.51.56-.85,1.07-.85h12.07c.92,0,1.29.45,1.09,1.36l-2.29,10.53Z"/>
    <path class="cls-1" d="M163.82,149.99c2.02,4.12,8.27,4.44,12.24,3.44,1.76-.44,4.16-1.27,7.21-2.49.11-.05.23-.07.36-.07.45,0,.83.31.93.74.08.36.05.82-.09,1.38-.81,3.24-1.67,6.54-2.56,9.91-.22.84-.59,1.43-1.11,1.8-.64.45-2.19.88-4.65,1.28-4.31.7-8.7.75-13.16.13-1.36-.19-2.76-.56-4.21-1.11-6.71-2.57-10.12-7.55-10.22-14.93-.09-6.61,1.53-12.5,4.87-17.66,1.24-1.92,3.01-3.74,5.32-5.47,7.58-5.68,18.16-6.67,27.17-4.25,1.38.37,2.64.85,3.79,1.44.39.19.61.64.52,1.07-.75,3.56-1.51,6.8-2.26,9.71,0,.02-.05.24-.13.66-.12.66-.43,1.02-.93,1.08-.27.03-.67-.06-1.19-.27-7.58-3.14-16.43-2.97-20.97,4.61-1.54,2.57-2.2,6.38-.92,9"/>
    <path class="cls-1" d="M206.01,152.42l.07.05c3.4,2.47,8.87.74,12.21-3.86,3.34-4.6,3.3-10.34-.1-12.81-3.4-2.47-8.87-.74-12.21,3.86-3.34,4.6-3.3,10.34.1,12.81l-.07-.05ZM224.72,125.67l.52-2.29c.18-.76.85-1.28,1.61-1.27h11.67c.83,0,1.15.41.97,1.22l-9.44,41.62c-.14.63-.71,1.09-1.37,1.09h-12.41c-.73,0-1.01-.35-.85-1.06l.72-3.18c.11-.49-.02-.56-.39-.22-4.88,4.6-10.55,6.11-17,4.53-2.15-.53-3.83-1.27-5.06-2.23-6.79-5.34-5.35-16.42-3.23-23.77,3.17-10.99,12.18-18.75,23.87-18.63,4.14.05,7.22,1.37,10.07,4.28.17.17.28.14.33-.09Z"/>
    <path class="cls-1" d="M258.28,152.14l.03.02c3.51,2.74,9.2,1.33,12.7-3.15,3.5-4.48,3.49-10.34-.02-13.09-3.51-2.74-9.2-1.33-12.7,3.15-3.5,4.48-3.49,10.34.02,13.09l-.03-.02ZM259.28,127.03c.85-.78,1.54-1.5,2.38-2.1,3.96-2.83,8.41-3.9,13.35-3.18,6.6.95,10.66,4.62,12.18,11,.88,3.7.98,7.73.31,12.09-2.15,13.83-14,23.98-28.33,21.49-2.74-.48-5.06-1.67-6.94-3.56-.15-.16-.26-.13-.31.09l-4.64,20.44c-.18.79-.67,1.18-1.48,1.18h-11.61c-1.12,0-1.56-.55-1.32-1.65l13.01-59.93c.1-.45.5-.77.96-.77h12.62c.28,0,.51.23.51.51,0,.04,0,.07-.01.11l-.9,4.15c-.07.29.01.34.24.13Z"/>
    <path class="cls-1" d="M45.79,152.53h.02c3.39,2.56,8.91.95,12.33-3.59,3.42-4.54,3.45-10.29.06-12.84-3.39-2.55-8.91-.94-12.33,3.6-3.42,4.54-3.45,10.29-.06,12.84h-.02ZM56.02,161.93c.12-.67-.06-.76-.53-.26-2.32,2.45-5.01,4.01-8.07,4.69-3.82.85-9.77.35-13.19-2.12-3.45-2.49-5.35-5.94-5.7-10.36-.53-6.76.76-13.13,3.86-19.1,1.03-1.98,2.47-3.96,4.3-5.93,4.47-4.81,10.79-7.36,17.35-7.26,4.15.06,7.74,1.47,10.51,4.48.03.03.07.05.11.05.07,0,.13-.05.15-.12l.73-3.23c.08-.32.36-.54.68-.54h12.31s0,0,0,0c.42,0,.75.34.75.75,0,.06,0,.11-.02.17l-9.51,41.9c-.14.58-.65.98-1.23.97h-12.37c-.56,0-.79-.28-.7-.84l.57-3.26Z"/>
    <path class="cls-1" d="M96.89,134.39c-.75,0-1.41.56-1.51,1.33-.18,1.51.45,2.39,1.91,2.65,4.41.78,7.88,1.21,11.13,3.87,4.68,3.83,3.88,10.52,1.49,15.58-2.27,4.8-6.34,7.35-11.43,8.09-.7.1-2.95.15-6.76.14-2.88,0-7.73,0-14.54.03-.04,0-.07,0-.11,0-.55-.06-.96-.56-.9-1.12,0-.04,0-.07.02-.11l2.15-9.89c.09-.4.44-.68.84-.68h15.21c1.67,0,2.72-.74,3.16-2.22,0-.02.02-.08.04-.17.36-1.57-.26-2.46-1.86-2.69-5.22-.73-10.58-.97-13.08-5.94-1.93-3.83-1.07-9.17.79-13.12,1.14-2.43,2.8-4.34,4.99-5.75,1.74-1.12,3.75-1.81,6.02-2.08.56-.07,2.65-.11,6.26-.13,4.6-.02,8.95-.02,13.03,0,.02,0,.05,0,.07,0,.43.05.74.42.69.85,0,.03,0,.05-.01.08l-2.26,10.42c-.11.5-.55.86-1.07.86h-14.27Z"/>
    <path class="cls-1" d="M245.22,24.12h-47.12c-2.66,0-4.81-2.15-4.81-4.81h0c0-2.66,2.15-4.81,4.81-4.81h54.41l-7.28,9.62Z"/>
    <path class="cls-1" d="M280.5,41.48h-72.24c-2.66,0-4.81-2.15-4.81-4.81h0c0-2.66,2.15-4.81,4.81-4.81h79.53l-7.28,9.62Z"/>
    <path class="cls-1" d="M245.6,58.81h-31.57c-2.66,0-4.81-2.15-4.81-4.81h0c0-2.66,2.15-4.81,4.81-4.81h38.85l-7.28,9.62Z"/>
    <path class="cls-1" d="M269.48,76.15h-53.1c-2.66,0-4.81-2.15-4.81-4.81h0c0-2.66,2.15-4.81,4.81-4.81h60.39l-7.28,9.62Z"/>
    <path class="cls-1" d="M244.08,93.46h-29.03c-2.66,0-4.81-2.15-4.81-4.81h0c0-2.66,2.15-4.81,4.81-4.81h36.31l-7.28,9.62Z"/>
  </g>
</svg>