<?xml version="1.0" encoding="UTF-8"?>
<svg xmlns="http://www.w3.org/2000/svg" version="1.1" viewBox="0 0 16 16">
  <defs>
    <style>
      .cls-1 {
        fill: #34f2af;
        fill-rule: evenodd;
      }
    </style>
  </defs>
  <!-- Generator: Adobe Illustrator 28.7.2, SVG Export Plug-In . SVG Version: 1.2.0 Build 154)  -->
  <g>
    <g id="Camada_1">
      <path class="cls-1" d="M14,1H2C.9,1,0,1.9,0,3s.9,2,2,2v8c0,1.1.9,2,2,2h8c1.1,0,2-.9,2-2V5c1.1,0,2-.9,2-2s-.9-2-2-2ZM3,13V3h6v11h-5c-.6,0-1-.4-1-1ZM11,3v11h1c.6,0,1-.4,1-1V3h-2Z"/>
    </g>
  </g>
</svg>